HIERARCHY
ROOT Hips
{
  OFFSET 0 0 0
  CHANNELS 6 Xposition Yposition Zposition Zrotation Yrotation Xrotation
  JOINT LeftThigh
  {
    OFFSET 8.409438 0 -5.917753
    CHANNELS 3 Zrotation Yrotation Xrotation
    JOINT LeftLeg
    {
      OFFSET 0 0 -42.358652
      CHANNELS 3 Zrotation Yrotation Xrotation
      JOINT LeftFoot
      {
        OFFSET 0 0 -39.357303
        CHANNELS 3 Zrotation Yrotation Xrotation
      }
    }
  }
  JOINT RightThigh
  {
    OFFSET -8.409438 0 -5.917753
    CHANNELS 3 Zrotation Yrotation Xrotation
    JOINT RightLeg
    {
      OFFSET 0 0 -42.358652
      CHANNELS 3 Zrotation Yrotation Xrotation
      JOINT RightFoot
      {
        OFFSET 0 0 -39.357303
        CHANNELS 3 Zrotation Yrotation Xrotation
      }
    }
  }
  JOINT SpineLow
  {
    OFFSET 0 0 4.719101
    CHANNELS 3 Zrotation Yrotation Xrotation
    JOINT SpineMid
    {
      OFFSET 0 0 12.899191
      CHANNELS 3 Zrotation Yrotation Xrotation
      JOINT Chest
      {
        OFFSET 0 0 12.899191
        CHANNELS 3 Zrotation Yrotation Xrotation
        JOINT LeftShoulder
        {
          OFFSET 7.550562 1.41573 9.438202
          CHANNELS 3 Zrotation Yrotation Xrotation
          JOINT LeftArm
          {
            OFFSET 9.155056 0 4.247191
            CHANNELS 3 Zrotation Yrotation Xrotation
            JOINT LeftForearm
            {
              OFFSET 0 0 25.771955
              CHANNELS 3 Zrotation Yrotation Xrotation
              JOINT LeftHand
              {
                OFFSET 0 0 25.197169
                CHANNELS 3 Zrotation Yrotation Xrotation
              }
            }
          }
        }
        JOINT RightShoulder
        {
          OFFSET -7.550562 1.41573 9.438202
          CHANNELS 3 Zrotation Yrotation Xrotation
          JOINT RightArm
          {
            OFFSET -9.155056 0 4.247191
            CHANNELS 3 Zrotation Yrotation Xrotation
            JOINT RightForearm
            {
              OFFSET 0 0 -25.771955
              CHANNELS 3 Zrotation Yrotation Xrotation
              JOINT RightHand
              {
                OFFSET 0 0 -25.197169
                CHANNELS 3 Zrotation Yrotation Xrotation
              }
            }
          }
        }
        JOINT Neck
        {
          OFFSET 0 0 15.101124
          CHANNELS 3 Zrotation Yrotation Xrotation
          JOINT Head
          {
            OFFSET 0 0 11.325843
            CHANNELS 3 Zrotation Yrotation Xrotation
            End Site
            {
              OFFSET 0 0 14.157303
            }
          }
        }
      }
    }
  }
}
MOTION
Frames: 5
Frame Time: 0.0
0.0  93.25843  0.0  -1.93814  -28.75262  -81.106412  24.706643  -12.684622  -5.179281  -0.344196  -0.319657  13.196691  4.185564  0.349332  2.969899  0.465984  0.440909  -17.074002  6.131287  7.322483  11.528893  -7.124804  -1.591816  -1.448941  -6.501021  -1.91482  -1.585511  -17.674369  -5.61298  -3.793068  -17.67437  -5.612979  -3.793068  -23.923773  9.044467  14.909883  -7.016701  56.196198  31.412704  -21.31227  -10.424513  138.369925  69.277034  -39.779073  19.190091  3.060832  0.879808  29.656171  61.294601  18.982872  53.151628  -1.83222  -11.279645  -121.041195  60.448265  13.594554  -7.812969  23.07893  2.795104  7.391048  17.275051  2.380037  5.445738  
0.0  93.25843  0.0  -1.741816  -28.931537  -81.239095  24.349562  -12.850428  -5.258289  0.231422  0.01599  13.716681  4.24232  0.388012  3.000309  1.304354  0.580884  -17.004762  5.833727  7.600374  11.809706  -7.297454  -1.610281  -1.483952  -6.477985  -1.841462  -1.595685  -17.612537  -5.415643  -3.841883  -17.612538  -5.415643  -3.841883  -24.202907  8.81749  14.88436  -6.449972  56.360354  31.895876  -21.2854  -10.148457  138.360643  69.223161  -39.778995  19.090905  3.039139  0.574131  29.471203  61.174162  19.090812  53.329514  -1.531789  -11.32162  -121.032826  60.432222  13.48343  -7.495788  23.157512  2.884833  7.180895  17.333497  2.440429  5.284099  
0.0  93.25843  0.0  -1.498722  -29.346447  -81.402666  24.233424  -12.948388  -5.299016  1.164805  0.287864  14.458706  4.031771  0.446007  2.916732  2.05265  0.737597  -16.955202  5.703533  7.958181  12.110292  -7.1832  -1.672063  -1.422613  -6.419922  -1.760411  -1.611104  -17.454803  -5.196914  -3.909719  -17.454804  -5.196914  -3.909719  -24.03673  8.788154  14.88096  -6.195546  56.301832  32.347948  -21.090116  -9.819949  138.94646  68.701904  -40.629197  19.538437  3.029619  0.380426  29.306918  61.17263  19.067681  53.638151  -1.065804  -11.439945  -120.983174  59.981642  13.651901  -7.320719  23.300431  2.929008  6.883353  17.441238  2.463953  5.058309  
0.0  93.25843  0.0  -1.298199  -29.902824  -81.633508  24.398212  -13.049473  -5.259827  1.634734  0.544461  14.962311  3.931997  0.506201  2.88873  2.402008  0.790562  -16.876969  5.76723  8.216925  12.464731  -7.232637  -1.690201  -1.447531  -6.322951  -1.684603  -1.604582  -17.192365  -4.984468  -3.919314  -17.192365  -4.984467  -3.919314  -24.106572  8.716467  14.91831  -6.135697  56.381314  32.335195  -21.064358  -9.527346  138.997049  68.645482  -40.669557  19.443682  3.038411  0.305629  29.259521  61.194379  18.922287  53.848471  -0.902829  -11.635915  -121.089328  59.617533  13.706807  -7.242756  23.428552  2.962215  6.493994  17.538451  2.475395  4.764014  
0.0  93.25843  0.0  -1.111744  -30.143547  -81.649691  24.672903  -13.011674  -5.331969  1.566936  0.792338  15.227632  3.959831  0.556055  2.889094  1.973245  0.786112  -17.114316  6.112696  8.503726  12.88115  -7.065291  -1.805869  -1.43069  -6.268685  -1.637549  -1.62541  -17.043864  -4.859247  -3.992101  -17.043864  -4.859247  -3.992101  -23.799975  8.814461  14.897903  -6.287826  56.348655  32.331674  -21.068233  -9.497027  139.293578  68.886972  -40.983498  19.666655  3.136659  0.321373  29.21499  61.29867  18.775522  54.067935  -0.98195  -11.895315  -121.330545  59.544985  13.52924  -7.094675  23.636747  3.046373  6.069812  17.695268  2.524438  4.441183  
